<?xml version="1.0" encoding="UTF-8"?>
<svg xmlns="http://www.w3.org/2000/svg" version="1.1" viewBox="0 0 792 612">
  <defs>
    <style>
      .cls-1 {
        fill: #8a2432;
      }

      .cls-2 {
        fill: #79858d;
      }
    </style>
  </defs>
  <!-- Generator: Adobe Illustrator 28.6.0, SVG Export Plug-In . SVG Version: 1.2.0 Build 709)  -->
  <g>
    <g id="Capa_1">
      <g>
        <g>
          <path class="cls-1" d="M200.36,372.25c-46.28,0-123.91-49.29-123.91-103.71,0-53.94,77.7-103.08,123.91-103.08,1.95,0,3.52-1.56,3.52-3.5s-1.58-3.5-3.52-3.5c-24.08,0-56.61,13.12-82.87,33.41-29.88,23.09-49.02,50.06-49.02,76.66,0,36.38,31.39,65.4,48.9,78.54,26.03,19.54,58.6,32.16,82.99,32.16,1.95,0,3.52-1.56,3.52-3.5s-1.58-3.49-3.52-3.49Z"/>
          <path class="cls-1" d="M304.87,261.15c-.35.1-16.23,4.32-37.5,8.93.01-.7.03-1.4.02-2.11-.03-3.39-.21-6.6-.56-9.68,21.76-4.26,38.34-8.29,39.8-8.64,1.89-.46,3.04-2.35,2.58-4.23-.47-1.87-2.38-3.02-4.26-2.56-.36.09-17.09,4.15-39.23,8.49-5.27-27.49-22.07-42.71-42.37-49.58-14.93-5.06-32.07-3.24-45.58,3.1-21.07,9.88-35.33,30.22-30.01,48.7,3.2,11.12,14.11,15.24,36.06,15.24,20.28,0,47.3-3.91,70.86-8.2.15,2.61.24,5.35.24,8.25,0,1.32-.04,2.6-.09,3.87-23.66,4.77-51.02,9.2-71.01,9.2-24.44,0-30.95-12.11-31.22-12.63-.88-1.7-2.99-2.41-4.71-1.56-1.73.85-2.45,2.91-1.61,4.63.33.68,8.4,16.55,37.55,16.55,20.16,0,47-4.24,70.46-8.9-2.27,20-10.62,33.84-21.38,43.68-13.1,11.98-29.83,17.98-49.19,17.98-33.12,0-56.12-26.31-56.12-72.36,0-41.07,24.29-78.73,56.11-78.73,3.96,0,2.83-5.08.27-5.08-33.35,0-60.92,29.47-67.23,67.41-1.52-8.3-4.19-13.82-7.23-13.82-4.73,0-8.57,13.33-8.57,29.77s3.83,29.77,8.57,29.77c2.96,0,5.57-5.22,7.11-13.15,5.87,37.32,32.13,63.88,67.1,64.93,15.96.33,29-2.91,41.75-9.84,20.44-10.97,38.55-33.19,41.51-63.21,21.73-4.67,38.28-9.07,39.74-9.46,1.88-.5,2.99-2.42,2.48-4.29-.51-1.86-2.44-2.97-4.32-2.47ZM211.65,259.97c-26.62,1.72-49.33.31-52.61-8.86-5.61-15.71,7.35-32.96,21.16-40.29,13.33-7.07,28.27-8.26,42.12-2.92,9.91,3.82,30.23,16.97,31.69,45.64-13.64,2.49-28.46,4.87-42.37,6.43Z"/>
        </g>
        <rect class="cls-1" x="335.6" y="158.15" width="17.84" height="221.41"/>
        <polygon class="cls-1" points="535.14 379.56 535.14 210.34 477.16 379.56 457.73 379.56 400.06 210.34 400.06 379.56 382.22 379.56 382.22 158.15 400.06 158.15 467.29 352.36 535.14 158.15 552.98 158.15 552.98 379.56 535.14 379.56"/>
        <path class="cls-1" d="M708.5,319.62c0,44.55-33.58,59.4-63.8,59.4-30.22,0-64.41-14.85-64.41-59.4v-97.59c0-42.73,25.64-63.34,64.71-63.34,40.9,0,63.5,24.55,63.5,63.64v97.29ZM691.71,219.3c0-30.61-20.15-44.55-47.31-44.55-26.87,0-47.01,13.64-47.01,44.55v100.01c0,30.3,21.68,43.64,47.01,43.64,25.64,0,47.31-12.43,47.31-43.94v-99.71Z"/>
        <path class="cls-1" d="M717.58,175.67c.43-.98,1.01-1.82,1.74-2.54.73-.72,1.59-1.28,2.57-1.69.98-.41,2.02-.61,3.11-.61s2.13.2,3.1.61c.97.41,1.82.97,2.55,1.69.73.72,1.3,1.57,1.73,2.54.43.98.64,2.03.64,3.17s-.21,2.24-.64,3.22c-.43.98-1.01,1.84-1.73,2.56-.73.72-1.58,1.29-2.55,1.69-.97.4-2,.6-3.1.6s-2.14-.2-3.11-.6c-.98-.4-1.83-.97-2.57-1.69-.73-.72-1.32-1.58-1.74-2.56-.43-.98-.64-2.06-.64-3.22s.21-2.19.64-3.17ZM718.89,181.58c.33.84.8,1.57,1.39,2.18.59.62,1.29,1.1,2.09,1.45.81.35,1.68.53,2.62.53s1.79-.17,2.59-.53c.8-.35,1.5-.84,2.09-1.45.59-.62,1.06-1.35,1.39-2.18.34-.84.5-1.76.5-2.75s-.17-1.86-.5-2.69c-.33-.83-.8-1.55-1.39-2.17-.59-.61-1.29-1.09-2.09-1.44-.8-.35-1.66-.53-2.59-.53s-1.81.17-2.62.53c-.81.35-1.5.83-2.09,1.44-.59.61-1.06,1.33-1.39,2.17-.34.83-.5,1.73-.5,2.69s.17,1.9.5,2.75ZM725.49,174.16c1.11,0,1.94.22,2.47.67.53.44.8,1.12.8,2.02,0,.85-.24,1.47-.71,1.86-.47.4-1.06.63-1.75.7l2.67,4.15h-1.56l-2.54-4.05h-1.54v4.05h-1.45v-9.41h3.61ZM724.85,178.34c.33,0,.64,0,.93-.03.29-.02.55-.08.78-.18.22-.1.41-.25.54-.46.14-.21.21-.5.21-.87,0-.32-.06-.57-.18-.75-.12-.19-.28-.33-.47-.43-.19-.1-.41-.17-.66-.2-.25-.03-.5-.05-.74-.05h-1.93v2.99h1.52Z"/>
        <g>
          <path class="cls-2" d="M71.63,410.8v21.5h-2.86v-21.5h2.86Z"/>
          <path class="cls-2" d="M79.46,410.8l11.32,17.44h.06v-17.44h2.71v21.5h-3.13l-11.23-17.25h-.06v17.25h-2.71v-21.5h3.04Z"/>
          <path class="cls-2" d="M108.96,413.74c-.95-.69-2.17-1.04-3.66-1.04-.6,0-1.19.06-1.78.18-.58.12-1.1.32-1.55.6-.45.28-.81.66-1.08,1.13s-.41,1.06-.41,1.76c0,.66.2,1.2.59,1.61.39.41.91.75,1.57,1.01.65.26,1.39.48,2.21.65.82.17,1.66.36,2.51.56.85.2,1.69.44,2.51.71.82.27,1.56.64,2.21,1.1s1.17,1.04,1.57,1.75c.39.7.59,1.59.59,2.65,0,1.14-.26,2.12-.77,2.94-.51.81-1.17,1.48-1.97,1.99-.8.51-1.7.88-2.7,1.11s-1.98.35-2.97.35c-1.2,0-2.34-.15-3.42-.45-1.07-.3-2.02-.76-2.83-1.37s-1.46-1.4-1.93-2.35c-.47-.95-.71-2.08-.71-3.39h2.71c0,.9.18,1.68.53,2.33.35.65.81,1.19,1.39,1.61.57.42,1.24.73,2,.93.76.2,1.55.3,2.35.3.64,0,1.29-.06,1.94-.18.65-.12,1.24-.33,1.76-.62.52-.29.94-.69,1.26-1.19.32-.5.48-1.14.48-1.93s-.2-1.34-.59-1.81c-.39-.46-.91-.84-1.57-1.13s-1.39-.53-2.21-.71-1.66-.37-2.51-.56c-.85-.19-1.69-.41-2.51-.66-.82-.25-1.56-.58-2.21-.99s-1.17-.94-1.57-1.6c-.39-.65-.59-1.47-.59-2.45,0-1.08.22-2.02.66-2.82s1.03-1.45,1.76-1.96,1.57-.89,2.5-1.14,1.89-.38,2.88-.38c1.1,0,2.13.13,3.07.39.94.26,1.77.67,2.48,1.24.71.56,1.27,1.27,1.69,2.12.41.85.64,1.87.68,3.06h-2.71c-.16-1.55-.72-2.67-1.67-3.36Z"/>
          <path class="cls-2" d="M115.42,413.21v-2.41h17.19v2.41h-7.17v19.09h-2.86v-19.09h-7.17Z"/>
          <path class="cls-2" d="M137.97,410.8v21.5h-2.86v-21.5h2.86Z"/>
          <path class="cls-2" d="M140.5,413.21v-2.41h17.19v2.41h-7.17v19.09h-2.86v-19.09h-7.17Z"/>
          <path class="cls-2" d="M175.04,430.72c-1.47,1.38-3.55,2.06-6.26,2.06s-4.93-.66-6.49-1.97c-1.56-1.32-2.33-3.41-2.33-6.28v-13.73h2.86v13.73c0,1.93.51,3.39,1.54,4.38,1.02.99,2.5,1.49,4.43,1.49,1.83,0,3.22-.5,4.17-1.49.95-.99,1.43-2.45,1.43-4.38v-13.73h2.86v13.73c0,2.75-.73,4.81-2.2,6.19Z"/>
          <path class="cls-2" d="M179.53,413.21v-2.41h17.19v2.41h-7.17v19.09h-2.86v-19.09h-7.17Z"/>
          <path class="cls-2" d="M198.54,417.32c.43-1.36,1.08-2.55,1.94-3.6s1.94-1.88,3.22-2.5c1.28-.62,2.78-.93,4.49-.93s3.2.31,4.49.93c1.28.62,2.36,1.46,3.22,2.5.86,1.04,1.51,2.24,1.94,3.6.43,1.35.65,2.77.65,4.23s-.22,2.88-.65,4.23c-.43,1.36-1.08,2.55-1.94,3.6-.86,1.04-1.94,1.87-3.22,2.48-1.29.61-2.78.92-4.49.92s-3.2-.31-4.49-.92-2.36-1.44-3.22-2.48-1.51-2.24-1.94-3.6c-.43-1.36-.65-2.77-.65-4.23s.22-2.88.65-4.23ZM201.18,424.76c.28,1.05.72,2,1.32,2.85.6.84,1.38,1.52,2.32,2.03.94.51,2.07.77,3.37.77s2.43-.26,3.37-.77c.94-.51,1.72-1.19,2.32-2.03.6-.84,1.04-1.79,1.32-2.85.28-1.05.42-2.12.42-3.21s-.14-2.15-.42-3.21c-.28-1.05-.72-2-1.32-2.85-.6-.84-1.38-1.52-2.32-2.03-.94-.51-2.07-.77-3.37-.77s-2.43.26-3.37.77c-.94.51-1.72,1.19-2.32,2.03-.6.84-1.04,1.79-1.32,2.85-.28,1.05-.42,2.12-.42,3.21s.14,2.15.42,3.21Z"/>
          <path class="cls-2" d="M234.33,410.8l6.78,18.07,6.81-18.07h3.91v21.5h-2.71v-17.89h-.06l-6.72,17.89h-2.44l-6.72-17.89h-.06v17.89h-2.71v-21.5h3.91Z"/>
          <path class="cls-2" d="M271.43,410.8v2.41h-11.99v6.84h11.17v2.41h-11.17v7.44h12.08v2.41h-14.94v-21.5h14.85Z"/>
          <path class="cls-2" d="M273.03,410.8h3.43l5.36,8.4,5.6-8.4h3.19l-7.11,10.45,7.56,11.05h-3.49l-5.78-8.88-5.96,8.88h-3.19l7.47-11.05-7.08-10.45Z"/>
          <path class="cls-2" d="M296.37,410.8v21.5h-2.86v-21.5h2.86Z"/>
          <path class="cls-2" d="M314.18,413.84c-1.09-.76-2.39-1.14-3.9-1.14-1.29,0-2.38.24-3.3.72-.91.48-1.67,1.13-2.26,1.94-.59.81-1.03,1.74-1.31,2.79s-.42,2.13-.42,3.25c0,1.22.14,2.38.42,3.48.28,1.09.72,2.05,1.31,2.86.59.81,1.35,1.46,2.27,1.94.92.48,2.03.72,3.31.72.94,0,1.78-.16,2.51-.47.73-.31,1.36-.74,1.9-1.29.53-.55.95-1.21,1.25-1.97.3-.76.48-1.59.54-2.47h2.86c-.28,2.71-1.21,4.82-2.8,6.32-1.59,1.5-3.75,2.26-6.5,2.26-1.67,0-3.12-.29-4.37-.86-1.24-.57-2.28-1.36-3.1-2.36-.82-1-1.44-2.19-1.85-3.55-.41-1.37-.62-2.83-.62-4.4s.22-3.04.66-4.41c.44-1.37,1.09-2.57,1.94-3.6.85-1.02,1.92-1.83,3.19-2.42,1.27-.59,2.73-.89,4.38-.89,1.12,0,2.19.15,3.19.45s1.9.74,2.68,1.33c.78.58,1.44,1.31,1.96,2.18.52.87.86,1.88,1.02,3.03h-2.86c-.32-1.53-1.03-2.67-2.12-3.43Z"/>
          <path class="cls-2" d="M331.93,410.8l8.4,21.5h-3.16l-2.35-6.47h-9.09l-2.41,6.47h-2.92l8.37-21.5h3.16ZM333.92,423.42l-3.58-10.03h-.06l-3.64,10.03h7.29Z"/>
          <path class="cls-2" d="M345.45,410.8l11.32,17.44h.06v-17.44h2.71v21.5h-3.13l-11.23-17.25h-.06v17.25h-2.71v-21.5h3.04Z"/>
          <path class="cls-2" d="M363.62,417.32c.43-1.36,1.08-2.55,1.94-3.6s1.94-1.88,3.22-2.5c1.28-.62,2.78-.93,4.49-.93s3.2.31,4.49.93c1.29.62,2.36,1.46,3.22,2.5s1.51,2.24,1.94,3.6c.43,1.35.65,2.77.65,4.23s-.21,2.88-.65,4.23c-.43,1.36-1.08,2.55-1.94,3.6s-1.94,1.87-3.22,2.48c-1.28.61-2.78.92-4.49.92s-3.2-.31-4.49-.92-2.36-1.44-3.22-2.48-1.51-2.24-1.94-3.6c-.43-1.36-.65-2.77-.65-4.23s.22-2.88.65-4.23ZM366.26,424.76c.28,1.05.72,2,1.32,2.85.6.84,1.38,1.52,2.32,2.03.94.51,2.07.77,3.37.77s2.43-.26,3.37-.77,1.72-1.19,2.32-2.03c.6-.84,1.04-1.79,1.33-2.85.28-1.05.42-2.12.42-3.21s-.14-2.15-.42-3.21c-.28-1.05-.72-2-1.33-2.85-.6-.84-1.38-1.52-2.32-2.03s-2.07-.77-3.37-.77-2.43.26-3.37.77c-.94.51-1.72,1.19-2.32,2.03-.6.84-1.04,1.79-1.32,2.85-.28,1.05-.42,2.12-.42,3.21s.14,2.15.42,3.21Z"/>
          <path class="cls-2" d="M402.82,410.8c3.31,0,5.86.84,7.65,2.53,1.79,1.69,2.68,4.26,2.68,7.71,0,1.81-.2,3.41-.6,4.8s-1.02,2.57-1.87,3.52c-.84.95-1.92,1.68-3.22,2.18-1.31.5-2.85.75-4.64.75h-7.38v-21.5h7.38ZM403.06,429.89c.32,0,.72-.02,1.2-.08.48-.05.99-.17,1.54-.36.54-.19,1.08-.47,1.61-.83.53-.36,1.01-.85,1.43-1.48.42-.62.77-1.4,1.04-2.33.27-.93.41-2.06.41-3.39s-.12-2.43-.38-3.45c-.25-1.01-.66-1.88-1.23-2.59-.57-.71-1.31-1.25-2.21-1.63-.9-.37-2.02-.56-3.34-.56h-4.82v16.68h4.76Z"/>
          <path class="cls-2" d="M431.48,410.8v2.41h-11.98v6.84h11.17v2.41h-11.17v7.44h12.08v2.41h-14.94v-21.5h14.85Z"/>
          <path class="cls-2" d="M442.85,417.32c.43-1.36,1.08-2.55,1.94-3.6.86-1.04,1.94-1.88,3.22-2.5,1.29-.62,2.78-.93,4.49-.93s3.2.31,4.49.93c1.29.62,2.36,1.46,3.22,2.5s1.51,2.24,1.94,3.6c.43,1.35.65,2.77.65,4.23s-.22,2.88-.65,4.23c-.43,1.36-1.08,2.55-1.94,3.6s-1.94,1.87-3.22,2.48c-1.28.61-2.78.92-4.49.92s-3.2-.31-4.49-.92-2.36-1.44-3.22-2.48c-.86-1.04-1.51-2.24-1.94-3.6-.43-1.36-.65-2.77-.65-4.23s.21-2.88.65-4.23ZM445.49,424.76c.28,1.05.72,2,1.33,2.85.6.84,1.37,1.52,2.32,2.03.94.51,2.07.77,3.37.77s2.43-.26,3.37-.77,1.72-1.19,2.32-2.03c.6-.84,1.04-1.79,1.33-2.85.28-1.05.42-2.12.42-3.21s-.14-2.15-.42-3.21c-.28-1.05-.72-2-1.33-2.85-.6-.84-1.38-1.52-2.32-2.03s-2.07-.77-3.37-.77-2.43.26-3.37.77c-.94.51-1.72,1.19-2.32,2.03-.6.84-1.04,1.79-1.33,2.85-.28,1.05-.42,2.12-.42,3.21s.14,2.15.42,3.21Z"/>
          <path class="cls-2" d="M480.42,410.8v2.41h-11.26v6.84h9.88v2.41h-9.88v9.85h-2.86v-21.5h14.12Z"/>
          <path class="cls-2" d="M481.29,413.21v-2.41h17.19v2.41h-7.17v19.09h-2.86v-19.09h-7.17Z"/>
          <path class="cls-2" d="M507.1,410.8l8.4,21.5h-3.16l-2.35-6.47h-9.09l-2.41,6.47h-2.92l8.37-21.5h3.16ZM509.09,423.42l-3.58-10.03h-.06l-3.64,10.03h7.29Z"/>
          <path class="cls-2" d="M520.47,410.8v19.09h11.38v2.41h-14.24v-21.5h2.86Z"/>
          <path class="cls-2" d="M538.33,410.8l6.78,18.07,6.81-18.07h3.91v21.5h-2.71v-17.89h-.06l-6.72,17.89h-2.44l-6.71-17.89h-.06v17.89h-2.71v-21.5h3.92Z"/>
          <path class="cls-2" d="M560.02,417.32c.43-1.36,1.08-2.55,1.94-3.6.86-1.04,1.94-1.88,3.22-2.5,1.29-.62,2.78-.93,4.49-.93s3.2.31,4.49.93c1.29.62,2.36,1.46,3.22,2.5s1.51,2.24,1.94,3.6c.43,1.35.65,2.77.65,4.23s-.22,2.88-.65,4.23c-.43,1.36-1.08,2.55-1.94,3.6s-1.94,1.87-3.22,2.48c-1.28.61-2.78.92-4.49.92s-3.2-.31-4.49-.92c-1.29-.61-2.36-1.44-3.22-2.48-.86-1.04-1.51-2.24-1.94-3.6-.43-1.36-.65-2.77-.65-4.23s.21-2.88.65-4.23ZM562.66,424.76c.28,1.05.72,2,1.33,2.85.6.84,1.38,1.52,2.32,2.03s2.07.77,3.37.77,2.43-.26,3.37-.77,1.72-1.19,2.32-2.03c.6-.84,1.04-1.79,1.33-2.85.28-1.05.42-2.12.42-3.21s-.14-2.15-.42-3.21c-.28-1.05-.72-2-1.33-2.85-.6-.84-1.38-1.52-2.32-2.03s-2.07-.77-3.37-.77-2.43.26-3.37.77-1.72,1.19-2.32,2.03c-.6.84-1.04,1.79-1.33,2.85-.28,1.05-.42,2.12-.42,3.21s.14,2.15.42,3.21Z"/>
          <path class="cls-2" d="M586.33,410.8v19.09h11.38v2.41h-14.24v-21.5h2.86Z"/>
          <path class="cls-2" d="M599.65,417.32c.43-1.36,1.08-2.55,1.94-3.6.86-1.04,1.94-1.88,3.22-2.5,1.29-.62,2.78-.93,4.49-.93s3.2.31,4.49.93c1.29.62,2.36,1.46,3.22,2.5s1.51,2.24,1.94,3.6c.43,1.35.65,2.77.65,4.23s-.22,2.88-.65,4.23c-.43,1.36-1.08,2.55-1.94,3.6s-1.94,1.87-3.22,2.48c-1.28.61-2.78.92-4.49.92s-3.2-.31-4.49-.92-2.36-1.44-3.22-2.48c-.86-1.04-1.51-2.24-1.94-3.6-.43-1.36-.65-2.77-.65-4.23s.21-2.88.65-4.23ZM602.29,424.76c.28,1.05.72,2,1.33,2.85.6.84,1.38,1.52,2.32,2.03s2.07.77,3.37.77,2.43-.26,3.37-.77,1.72-1.19,2.32-2.03c.6-.84,1.04-1.79,1.33-2.85.28-1.05.42-2.12.42-3.21s-.14-2.15-.42-3.21c-.28-1.05-.72-2-1.33-2.85-.6-.84-1.38-1.52-2.32-2.03s-2.07-.77-3.37-.77-2.43.26-3.37.77-1.72,1.19-2.32,2.03c-.6.84-1.04,1.79-1.33,2.85-.28,1.05-.42,2.12-.42,3.21s.14,2.15.42,3.21Z"/>
          <path class="cls-2" d="M636.04,432.05c-1.25.49-2.5.74-3.76.74-1.61,0-3.04-.3-4.31-.89s-2.34-1.39-3.22-2.39-1.56-2.16-2.02-3.46c-.46-1.3-.69-2.66-.69-4.07,0-1.57.22-3.06.65-4.47s1.07-2.66,1.93-3.72c.85-1.06,1.92-1.91,3.19-2.54,1.27-.63,2.77-.95,4.47-.95,1.16,0,2.26.14,3.3.41,1.03.27,1.96.7,2.77,1.28.81.58,1.5,1.32,2.05,2.21.55.89.93,1.97,1.13,3.24h-2.86c-.14-.82-.4-1.53-.78-2.12-.38-.59-.85-1.08-1.42-1.46-.56-.38-1.2-.67-1.91-.86-.71-.19-1.47-.29-2.27-.29-1.3,0-2.42.26-3.36.78-.93.52-1.7,1.21-2.29,2.06-.59.85-1.03,1.83-1.31,2.92-.28,1.09-.42,2.21-.42,3.36s.16,2.2.48,3.24c.32,1.03.79,1.95,1.42,2.74s1.39,1.43,2.3,1.9c.91.47,1.97.71,3.18.71,1.12,0,2.12-.18,2.98-.54s1.59-.86,2.18-1.49c.59-.63,1.04-1.38,1.34-2.23s.43-1.77.39-2.76h-6.87v-2.41h9.43v11.32h-1.81l-.75-2.68c-.84,1.12-1.89,1.93-3.13,2.42Z"/>
          <path class="cls-2" d="M651.88,403.78l-4.25,4.88h-1.93l2.89-4.88h3.28ZM646.07,410.8v21.5h2.86v-21.5h-2.86Z"/>
          <path class="cls-2" d="M662.75,410.8l8.4,21.5h-3.16l-2.35-6.47h-9.09l-2.41,6.47h-2.92l8.37-21.5h3.16ZM664.74,423.42l-3.58-10.03h-.06l-3.64,10.03h7.29Z"/>
          <path class="cls-2" d="M676.76,428.96v3.04c0,1.14-.26,2.13-.78,2.95-.52.82-1.37,1.4-2.53,1.75v-1.51c.34-.12.63-.3.86-.53.23-.23.42-.48.56-.75.14-.27.24-.55.29-.83.05-.28.07-.54.05-.78h-1.78v-3.34h3.34Z"/>
          <path class="cls-2" d="M692.99,410.8v21.5h-2.86v-21.5h2.86Z"/>
          <path class="cls-2" d="M706.81,410.8l8.4,21.5h-3.16l-2.35-6.47h-9.09l-2.41,6.47h-2.92l8.37-21.5h3.16ZM708.79,423.42l-3.58-10.03h-.06l-3.64,10.03h7.29Z"/>
          <path class="cls-2" d="M726.74,410.8c2.17,0,3.81.56,4.92,1.67s1.67,2.68,1.67,4.68-.56,3.57-1.67,4.7-2.76,1.68-4.92,1.66h-6.56v8.79h-2.86v-21.5h9.43ZM725.78,421.1c1.63.02,2.82-.31,3.57-.99.75-.68,1.13-1.67,1.13-2.95s-.38-2.26-1.13-2.94-1.94-1.01-3.57-1.01h-5.6v7.89h5.6Z"/>
        </g>
      </g>
    </g>
  </g>
</svg>